<svg xmlns="http://www.w3.org/2000/svg" viewBox="0 0 800 800" role="img">
<defs></defs>
<ellipse cx="400" cy="700" rx="235" ry="26" fill="#10303b" opacity="0.10"/>
<g fill="none" stroke-linecap="round">
       <path d="M 400 214 v 96 c 0 190 -190 120 -190 260 a 190 150 0 0 0 380 0 c 0 -140 -190 -70 -190 -210"
             stroke="#1d2026" stroke-width="34"/>
       <path d="M 400 214 v 96 c 0 190 -190 120 -190 260 a 190 150 0 0 0 380 0 c 0 -140 -190 -70 -190 -210"
             stroke="#3b3e44" stroke-width="24"/>
       <path d="M 260 480 a 190 150 0 0 0 -20 90" stroke="#ffffff" stroke-opacity="0.25" stroke-width="24"/>
     </g>
     <rect x="368" y="96" width="64" height="118" rx="18" fill="#33353a" stroke="#17181b" stroke-width="3"/>
         <rect x="382" y="44" width="36" height="62" rx="14" fill="#b9bec6"/>
         <rect x="390" y="52" width="20" height="46" rx="9" fill="#8f959e"/>
</svg>