<svg xmlns="http://www.w3.org/2000/svg" viewBox="0 0 800 800" role="img">
<defs><linearGradient id="rug" x1="0" y1="0" x2="1" y2="1">
      <stop offset="0" stop-color="#3a3c42"/><stop offset="1" stop-color="#1c1d20"/>
    </linearGradient></defs>
<ellipse cx="400" cy="700" rx="235" ry="26" fill="#10303b" opacity="0.10"/>
<rect x="225" y="72" width="350" height="626" rx="70" fill="url(#rug)"/>
     <circle cx="251" cy="98" r="34" fill="#191a1d"/><circle cx="251" cy="98" r="34" fill="none" stroke="#3c3e44" stroke-width="4"/><circle cx="549" cy="98" r="34" fill="#191a1d"/><circle cx="549" cy="98" r="34" fill="none" stroke="#3c3e44" stroke-width="4"/><circle cx="251" cy="672" r="34" fill="#191a1d"/><circle cx="251" cy="672" r="34" fill="none" stroke="#3c3e44" stroke-width="4"/><circle cx="549" cy="672" r="34" fill="#191a1d"/><circle cx="549" cy="672" r="34" fill="none" stroke="#3c3e44" stroke-width="4"/>
     <rect x="255" y="102" width="290" height="566" rx="44" fill="#26272b"/>
     <path d="M 285 322 l 230 260 M 515 322 l -230 260" stroke="#34363c" stroke-width="26" stroke-linecap="round"/>
     <rect x="269" y="116" width="140" height="140" rx="40" fill="#101114"/>
     <rect x="269" y="116" width="140" height="140" rx="40" fill="none" stroke="#4a4d55" stroke-width="5"/>
</svg>