<svg xmlns="http://www.w3.org/2000/svg" viewBox="0 0 800 800" role="img">
<defs><linearGradient id="glass" x1="0" y1="0" x2="1" y2="0">
        <stop offset="0" stop-color="#c9d4dc"/><stop offset="0.35" stop-color="#3d4752"/>
        <stop offset="0.65" stop-color="#3d4752"/><stop offset="1" stop-color="#c9d4dc"/>
      </linearGradient></defs>
<ellipse cx="400" cy="700" rx="235" ry="26" fill="#10303b" opacity="0.10"/>
<rect x="245" y="80" width="310" height="620" rx="46" fill="url(#glass)" opacity="0.92"/>
     <rect x="245" y="80" width="310" height="620" rx="46" fill="none" stroke="#8fa3b0" stroke-width="4"/>
     <rect x="344" y="106" width="112" height="18" rx="9" fill="#8fa3b0" opacity="0.65"/>
     <path d="M 275 640 L 465 120 h 46 L 321 640 z" fill="#ffffff" opacity="0.25"/>
     <g stroke="#1f262e" stroke-opacity="0.35" stroke-width="6"><line x1="285" y1="290" x2="285" y2="510"/><line x1="311" y1="290" x2="311" y2="510"/><line x1="337" y1="290" x2="337" y2="510"/><line x1="363" y1="290" x2="363" y2="510"/><line x1="389" y1="290" x2="389" y2="510"/><line x1="415" y1="290" x2="415" y2="510"/><line x1="441" y1="290" x2="441" y2="510"/><line x1="467" y1="290" x2="467" y2="510"/><line x1="493" y1="290" x2="493" y2="510"/></g>
</svg>